<svg width="92" height="92" viewBox="0 0 92 92" fill="none" xmlns="http://www.w3.org/2000/svg">
<g clip-path="url(#clip0_779_124)">
<circle cx="45.9462" cy="45.9462" r="45.9462" fill="#292929"/>
<path d="M73.4778 35.9819H58.8857C58.075 33.0867 56.6274 30.8863 54.5428 29.3807C52.5161 27.8173 50.0552 27.0356 47.1599 27.0356C44.2068 27.0356 41.659 27.8463 39.5165 29.4676C37.4319 31.031 35.8395 33.2893 34.7393 36.2425C33.6391 39.1377 33.089 42.612 33.089 46.6654C33.089 50.7187 33.6391 54.1931 34.7393 57.0883C35.8395 59.9836 37.4319 62.2129 39.5165 63.7763C41.6011 65.3398 44.1489 66.1215 47.1599 66.1215C49.9394 66.1215 52.3424 65.3977 54.3691 63.9501C56.4537 62.5024 57.9013 60.3889 58.712 57.6094H73.4778C72.4355 61.9523 70.6694 65.6003 68.1795 68.5535C65.6895 71.5067 62.6495 73.736 59.0594 75.2415C55.4693 76.7471 51.5607 77.4998 47.3336 77.4998C41.4273 77.4998 36.3317 76.2549 32.0467 73.765C27.8197 71.275 24.548 67.7428 22.2318 63.1683C19.9735 58.5359 18.8444 53.0349 18.8444 46.6654C18.8444 40.2958 20.0025 34.7949 22.3187 30.1625C24.6349 25.4722 27.9355 21.882 32.2204 19.3921C36.5054 16.9022 41.6011 15.6572 47.5074 15.6572C51.7344 15.6572 55.643 16.41 59.2331 17.9155C62.8812 19.4211 65.9501 21.6794 68.44 24.6904C70.9879 27.7015 72.6671 31.4653 73.4778 35.9819Z" fill="#EEEA9B"/>
</g>
<defs>
<clipPath id="clip0_779_124">
<rect width="91.8925" height="91.8925" fill="white"/>
</clipPath>
</defs>
</svg>
